#N canvas 793 51 450 300 10;
#X obj 104 89 route list symbol float bang;
#X obj 125 127 list;
#X msg 25 11 start;
#X msg 77 11 stop;
#X msg 24 46 reset;
#X msg 148 9 suite pdtest_auto_test_suite.lua;
#X obj 124 48 pdtest l s f b;
#X connect 0 0 1 0;
#X connect 0 1 6 2;
#X connect 0 2 6 3;
#X connect 0 3 6 4;
#X connect 1 0 6 1;
#X connect 2 0 6 0;
#X connect 3 0 6 0;
#X connect 4 0 6 0;
#X connect 5 0 6 0;
#X connect 6 0 0 0;
