#N canvas 659 368 450 300 10;
#X obj 124 48 pdtest;
#X obj 104 89 route list symbol float bang;
#X obj 125 127 list;
#X msg 25 11 start;
#X msg 77 11 stop;
#X msg 24 46 reset;
#X msg 148 9 suite pdtest_auto_test_suite.lua;
#X connect 0 0 1 0;
#X connect 1 0 2 0;
#X connect 1 1 0 2;
#X connect 1 2 0 3;
#X connect 1 3 0 4;
#X connect 2 0 0 1;
#X connect 3 0 0 0;
#X connect 4 0 0 0;
#X connect 5 0 0 0;
#X connect 6 0 0 0;
