#N canvas 613 69 450 300 10;
#X obj 112 63 pdtest;
#X msg 112 28 suite testsuite.lua;
#X msg 238 128 list result \$1;
#X obj 106 227 print pdtest:::;
#X obj 148 190 print puredis:::;
#X obj 135 128 puredis;
#X obj 95 100 route list;
#X msg 20 16 start;
#X msg 69 12 stop;
#X msg 23 44 reset;
#X connect 0 0 6 0;
#X connect 1 0 0 0;
#X connect 2 0 0 1;
#X connect 5 0 4 0;
#X connect 5 0 2 0;
#X connect 6 0 3 0;
#X connect 6 0 5 0;
#X connect 7 0 0 0;
#X connect 8 0 0 0;
#X connect 9 0 0 0;
