#N canvas 524 109 733 364 10;
#X text 22 22 pdtest usage:;
#X msg 412 78 suite testsuite.lua;
#X obj 419 254 route list;
#X msg 367 117 start;
#X msg 255 165 stop;
#X msg 369 206 reset;
#X obj 418 289 your external;
#X text 34 76 - Loading the test suite testsuite.lua \, path lookup
is done using pd's paths.;
#X text 35 119 - Starting the test loop manually \, otherwise started
automatically by the suite loading message.;
#X text 36 165 - Stopping the test loop manually;
#X text 37 205 - Reset test data \, need to be done before re-starting.
;
#X obj 497 225 pdtest l s f b;
#X obj 510 155 route list symbol float bang;
#X obj 514 187 list;
#X text 33 48 - pdtest creation arguments specifies the test inlets
types;
#X text 38 244 - pdtest outputs messages as specified in testsuites.
;
#X connect 1 0 11 0;
#X connect 2 0 6 0;
#X connect 3 0 11 0;
#X connect 4 0 11 0;
#X connect 5 0 11 0;
#X connect 6 0 12 0;
#X connect 11 0 2 0;
#X connect 12 0 13 0;
#X connect 12 1 11 2;
#X connect 12 2 11 3;
#X connect 12 3 11 4;
#X connect 13 0 11 1;
