#N canvas 614 72 285 173 10;
#X obj 115 63 pdtest;
#X msg 154 124 list result \$1;
#X obj 24 81 route list;
#X msg 32 18 start;
#X msg 85 19 stop;
#X msg 31 49 reset;
#X obj 102 98 puredis;
#X msg 134 33 suite examplesuite.lua;
#X connect 0 0 2 0;
#X connect 1 0 0 1;
#X connect 2 0 6 0;
#X connect 3 0 0 0;
#X connect 4 0 0 0;
#X connect 5 0 0 0;
#X connect 6 0 1 0;
#X connect 7 0 0 0;
