#N canvas 807 65 390 159 10;
#X obj 24 81 route list;
#X msg 32 18 start;
#X msg 85 19 stop;
#X msg 31 49 reset;
#X obj 103 87 puredis;
#X msg 134 33 suite examplesuite.lua;
#X obj 200 132 list;
#X obj 126 64 pdtest list symbol float bang;
#X obj 200 104 route list symbol float bang;
#X connect 0 0 4 0;
#X connect 1 0 7 0;
#X connect 2 0 7 0;
#X connect 3 0 7 0;
#X connect 4 0 8 0;
#X connect 5 0 7 0;
#X connect 6 0 7 1;
#X connect 7 0 0 0;
#X connect 8 0 6 0;
#X connect 8 1 7 2;
#X connect 8 2 7 3;
#X connect 8 3 7 4;
